<?xml version="1.0" encoding="UTF-8" standalone="no"?>
<svg
   width="24"
   height="24"
   fill-rule="evenodd"
   clip-rule="evenodd"
   version="1.1"
   id="svg4"
   sodipodi:docname="iconmonstr-question-thin.svg"
   inkscape:version="1.2.1 (9c6d41e410, 2022-07-14, custom)"
   xmlns:inkscape="http://www.inkscape.org/namespaces/inkscape"
   xmlns:sodipodi="http://sodipodi.sourceforge.net/DTD/sodipodi-0.dtd"
   xmlns="http://www.w3.org/2000/svg"
   xmlns:svg="http://www.w3.org/2000/svg">
  <defs
     id="defs8">
    <clipPath
       clipPathUnits="userSpaceOnUse"
       id="clipPath301">
      <path
         id="path303"
         style="fill:#ff0000;fill-opacity:1;fill-rule:nonzero;stroke:none"
         d="M 0,0 V 24 H 24 V 0 Z m 11.517578,4.4589844 c 0.377593,0.00219 0.746213,0.08149 1.109375,0.1777344 0.323078,0.088229 0.632612,0.2178158 0.941406,0.3457031 0.268551,0.11121 0.537083,0.2248574 0.791016,0.3671875 0.06187,0.034678 0.122509,0.07138 0.183594,0.1074218 0.04074,0.025305 0.07932,0.053565 0.11914,0.080078 0.14095,0.011846 0.281141,0.028694 0.419922,0.0625 0.311784,0.078428 0.615378,0.1864412 0.90625,0.3242187 0.110232,0.05383 0.156602,0.072826 0.261719,0.1367188 0.184525,0.1121602 0.350287,0.2537651 0.509766,0.3984375 0.142585,0.1347465 0.286986,0.2686006 0.410156,0.421875 0.05925,0.069351 0.124263,0.1341859 0.171875,0.2128906 0.168813,0.2609922 0.304797,0.5417984 0.433594,0.8242188 0.192945,0.4592246 0.376766,0.9401431 0.363281,1.4472656 -0.0023,0.086312 -0.01814,0.171962 -0.02734,0.2578125 -0.09669,0.6590223 -0.225766,1.3174023 -0.507812,1.9257813 -0.358908,0.778348 -0.76433,1.53392 -1.158204,2.294922 -0.229441,0.445062 -0.460972,0.890395 -0.673828,1.34375 -0.171267,0.364787 -0.243804,0.538304 -0.402343,0.90625 -0.06225,0.144465 -0.123457,0.289063 -0.185547,0.433594 -0.06086,0.135801 -0.120354,0.271541 -0.183594,0.40625 -0.281582,0.599832 -0.613906,1.17636 -0.976562,1.730468 -0.342558,0.500591 -0.688527,1.018925 -1.19336,1.371094 -0.06125,0.03511 -0.122267,0.07416 -0.185547,0.105469 -0.01107,0.0055 -0.02213,0.0085 -0.0332,0.01367 -0.559856,0.461253 -1.311219,0.387665 -1.80664,-0.216797 -0.242791,-0.09956 -0.483257,-0.206052 -0.72461,-0.306641 C 9.6827786,19.44691 9.2879347,19.260663 8.8984375,19.060547 8.7017367,18.959486 8.4279719,18.816788 8.2382812,18.697266 8.1530189,18.643543 8.0729349,18.582981 7.9902344,18.525391 7.8284801,18.375518 7.7813025,18.352673 7.6699219,18.169922 7.6387339,18.118749 7.6157199,18.062762 7.5917969,18.007812 7.497323,17.790833 7.4248126,17.564514 7.3457031,17.341797 7.2564999,17.066604 7.211872,16.93705 7.1328125,16.650391 6.9425161,15.960388 6.804778,15.256278 6.7109375,14.546875 6.6848055,14.313651 6.6542895,14.081355 6.6328125,13.847656 6.5056502,12.46396 6.5162033,11.066438 6.671875,9.6855469 6.7705791,8.9937759 6.7682339,8.8819039 6.9238281,8.2304688 7.0223503,7.8179807 7.1378499,7.3868479 7.3515625,7.015625 c 0.011763,-0.020434 0.029313,-0.036867 0.044922,-0.054687 9.77e-5,-0.020572 -0.00244,-0.040763 0.00195,-0.064453 0.00961,-0.051848 0.026139,-0.1008843 0.056641,-0.1445313 0.048164,-0.065573 0.110014,-0.114535 0.1796875,-0.15625 C 7.7385262,6.528645 7.8420823,6.4623921 7.9453125,6.3945312 8.1246423,6.2795883 8.3042275,6.1644327 8.484375,6.0507812 8.5970772,5.9829899 8.7145132,5.9238582 8.8300781,5.8613281 8.8582478,5.8241635 8.8862971,5.7868486 8.9140625,5.75 9.1150394,5.492737 9.3523222,5.2706085 9.6074219,5.0683594 9.9002732,4.8426926 10.237957,4.6962815 10.587891,4.5859375 10.8923,4.4932186 11.201107,4.4641698 11.517578,4.4589844 Z m 3.699219,1.5019531 c 0.09683,0.083813 0.192372,0.1691905 0.285156,0.2578125 0.261021,0.2622436 0.500646,0.5466449 0.693359,0.8632812 0.03991,0.06557 0.07544,0.1343861 0.113282,0.2011719 0.198846,0.3781355 0.322518,0.7882776 0.353515,1.2148438 0.0063,0.087794 0.0022,0.1756629 0.0039,0.2636719 -0.0079,0.3317493 -0.06622,0.6630784 -0.181641,0.9746093 -0.07288,0.1967248 -0.110269,0.2609376 -0.199219,0.4414059 -0.138864,0.259472 -0.290616,0.511492 -0.435547,0.767578 -0.153749,0.287468 -0.328877,0.561144 -0.515625,0.828126 -0.145694,0.207293 -0.308701,0.401217 -0.470703,0.595703 -0.151438,0.178334 -0.292157,0.364632 -0.419922,0.560547 -0.153878,0.253603 -0.308829,0.512341 -0.414062,0.791015 -0.01791,0.04744 -0.0296,0.09814 -0.04492,0.146485 -0.127135,0.435015 -0.199008,0.882888 -0.267578,1.330078 -0.05716,0.388918 -0.0987,0.780277 -0.150391,1.169922 -0.03932,0.313293 -0.103683,0.620866 -0.158203,0.93164 -0.02268,0.13662 -0.03292,0.275958 -0.04101,0.414063 -0.0056,0.103942 -0.0077,0.208441 -0.0098,0.3125 -8e-4,0.04642 -0.0015,0.09225 -0.002,0.138671 -1.08e-4,0.01434 8.4e-5,0.0078 0,0.02148 -0.0026,0.428453 -0.06709,0.794622 -0.173828,1.101562 0.21496,-0.250794 0.404342,-0.525558 0.589843,-0.796875 0.354453,-0.542121 0.677961,-1.104605 0.953125,-1.691406 0.06158,-0.13132 0.118485,-0.264096 0.177735,-0.396484 0.06147,-0.143097 0.123927,-0.286659 0.185547,-0.429688 0.159195,-0.369498 0.232042,-0.547067 0.404297,-0.914062 0.214917,-0.457903 0.449913,-0.905966 0.68164,-1.355469 0.391547,-0.757124 0.793554,-1.506913 1.150391,-2.28125 0.269307,-0.581769 0.392305,-1.213728 0.484375,-1.84375 0.0087,-0.081891 0.02339,-0.1637658 0.02539,-0.2460938 C 17.844584,8.8911416 17.660655,8.4363404 17.492188,8.0371094 17.369847,7.7717602 17.243652,7.5070496 17.083984,7.2617188 17.043002,7.1955048 16.98819,7.1403892 16.9375,7.0820312 16.821089,6.9367108 16.683882,6.8091761 16.548828,6.6816406 16.402632,6.5497384 16.25333,6.4201064 16.083984,6.3183594 15.993942,6.2642593 15.948296,6.2450933 15.853516,6.1992188 15.647715,6.1023455 15.433972,6.0260255 15.216797,5.9609375 Z M 8.5136719,6.3964844 C 8.3792406,6.4813182 8.2449355,6.5666928 8.1113281,6.6523438 8.0084252,6.7200043 7.9042136,6.7866674 7.8007812,6.8535156 c -0.029427,0.025097 -0.074971,0.038203 -0.09375,0.074219 -0.00518,0.00894 -0.00484,0.013349 -0.00586,0.021484 v 0.00195 c 0.00393,0.056063 -0.010956,0.1247374 -0.064453,0.1972656 -0.013744,0.018634 -0.030221,0.034205 -0.041016,0.054687 -0.181118,0.3436862 -0.2860861,0.7324372 -0.375,1.1074219 -0.1519216,0.6407427 -0.149472,0.7367233 -0.2460928,1.4179725 -0.1524707,1.3591214 -0.1607376,2.7339314 -0.035156,4.0957034 0.021192,0.229801 0.050401,0.460121 0.076172,0.689453 0.092194,0.695005 0.2273681,1.384581 0.4140625,2.060547 0.076765,0.27794 0.122311,0.406731 0.2089844,0.673828 0.076944,0.216205 0.1463877,0.435862 0.2382812,0.646484 0.021333,0.0489 0.042158,0.09922 0.070312,0.144531 0.075207,0.121023 0.1389766,0.161475 0.2480469,0.257813 0.07204,0.04914 0.1426759,0.102506 0.2167969,0.148437 0.1840977,0.114096 0.4393952,0.246488 0.6289062,0.34375 0.3850382,0.197623 0.7752756,0.382695 1.1679688,0.564454 0.107437,0.04463 0.214947,0.09095 0.322266,0.136718 -0.155052,-0.347832 -0.247573,-0.788364 -0.244141,-1.324218 1.29e-4,-0.02017 -1.69e-4,-0.0099 0,-0.03125 5e-4,-0.05729 8.55e-4,-0.114585 0.002,-0.171875 0.003,-0.14459 0.0075,-0.289188 0.01563,-0.433594 0.01554,-0.255306 0.03584,-0.51149 0.08008,-0.763672 0.04749,-0.268068 0.103112,-0.534634 0.138672,-0.804687 0.0548,-0.410231 0.09821,-0.821187 0.160156,-1.230469 0.09775,-0.633511 0.206155,-1.267647 0.404297,-1.878907 0.04444,-0.122126 0.08463,-0.246486 0.132812,-0.367187 0.175445,-0.439521 0.415891,-0.851787 0.666016,-1.251953 0.191972,-0.286356 0.395065,-0.563808 0.61914,-0.826172 0.108433,-0.130166 0.21931,-0.258863 0.31836,-0.396484 0.1308,-0.1844781 0.247424,-0.3782582 0.353515,-0.5781254 0.120914,-0.2134869 0.245766,-0.4235313 0.367188,-0.6367187 0.01633,-0.029792 0.03962,-0.076039 0.04492,-0.050781 0.0017,0.00801 -0.0026,0.018621 0.002,0.025391 0.0025,0.00372 0.0042,-0.0095 0.0059,-0.013672 0.02123,0.00108 -4.58e-4,-0.0014 0.01953,0.042969 0.0074,0.016433 0.0078,-0.017474 0.0078,-0.017578 -0.0013,-0.00687 -0.0041,-0.012761 -0.0059,-0.019531 C 13.560003,8.6311284 13.462854,8.5231766 13.365234,8.4199219 13.242505,8.295078 13.104091,8.188427 12.960938,8.0878906 12.783287,7.9748301 12.588408,7.8988882 12.394531,7.8183594 c -0.185192,-0.076728 -0.370785,-0.1593902 -0.5625,-0.21875 -0.103265,-0.02828 -0.206222,-0.056019 -0.3125,-0.070312 0.0068,-0.00711 -0.03212,-0.00453 -0.04101,-0.00586 -0.02564,0.00289 -0.02683,2.156e-4 -0.01953,-0.00586 -0.03962,0.031091 -0.07542,0.066419 -0.109375,0.1035157 -6.6e-5,0.038851 -2.67e-4,0.078336 0,0.1171874 0.0012,0.1032271 0.0034,0.2054449 0.0078,0.3085938 10e-4,0.024379 0.0036,0.047867 0.0039,0.072266 10e-5,0.00903 0.0047,0.021334 -0.002,0.027344 -0.0046,0.00414 -0.0091,-0.00754 -0.01367,-0.011719 0.02893,0.1238597 0.09826,0.2306883 0.164063,0.3378906 0.02109,0.034367 0.05505,0.064314 0.06445,0.1035157 0.006,0.024694 -0.03511,-0.036396 -0.05274,-0.054687 C 9.4135197,6.3335275 11.075034,12.976678 9.2304688,10.5625 9.1073804,10.401401 8.9904547,10.233596 8.8828125,10.060547 c -0.013217,0.04674 -0.028207,0.09322 -0.039063,0.140625 -0.01776,0.08919 -0.034529,0.178381 -0.037109,0.269531 -0.02489,0.880726 -0.9199587,0.819906 -0.8867187,-0.06055 0.00484,-0.128117 0.02455,-0.253295 0.048828,-0.378906 0.051473,-0.237566 0.1310875,-0.4690042 0.21875,-0.6953125 0.00219,-0.00542 0.0056,-0.010219 0.00781,-0.015625 v -0.00195 C 8.1468045,9.2102068 8.1283383,9.0664633 8.1601562,8.8925781 c -0.01305,-0.00731 -0.02612,-0.014097 -0.039062,-0.021484 -0.031509,-0.017985 0.00491,-0.06279 0.029297,-0.1015626 0.00128,-0.012716 0.011302,-0.028957 0.021484,-0.044922 0.021179,-0.056451 0.044907,-0.1117591 0.066406,-0.1660156 0.00748,-0.021329 0.014048,-0.043108 0.021484,-0.064453 0.015651,-0.045692 0.031435,-0.091127 0.046875,-0.1367187 -0.015146,-0.1929 -0.022742,-0.3862189 -0.02539,-0.5800784 0.00448,-0.1548774 -0.00799,-0.3120102 0.00195,-0.4667969 0.00436,-0.067952 0.012008,-0.1352612 0.017578,-0.203125 0.032909,-0.2488343 0.1094794,-0.4861208 0.2128907,-0.7109375 z m 2.8378901,0.9863281 c -4.98e-4,-0.029081 -0.0015,0.046202 -0.002,0.1035156 -3e-5,0.00389 3e-5,0.00783 0,0.011719 0.0055,-0.026204 0.0094,-0.047574 0.002,-0.054687 2.77e-4,-0.019757 3.24e-4,-0.04079 0,-0.060548 z" />
    </clipPath>
  </defs>
  <sodipodi:namedview
     id="namedview6"
     pagecolor="#ffffff"
     bordercolor="#000000"
     borderopacity="0.25"
     inkscape:showpageshadow="2"
     inkscape:pageopacity="0.0"
     inkscape:pagecheckerboard="0"
     inkscape:deskcolor="#d1d1d1"
     showgrid="false"
     inkscape:zoom="32.583333"
     inkscape:cx="12.015345"
     inkscape:cy="12"
     inkscape:window-width="1920"
     inkscape:window-height="1011"
     inkscape:window-x="0"
     inkscape:window-y="0"
     inkscape:window-maximized="1"
     inkscape:current-layer="svg4" />
  <path
     d="M12 0c6.623 0 12 5.377 12 12s-5.377 12-12 12-12-5.377-12-12 5.377-12 12-12zm0 1c6.071 0 11 4.929 11 11s-4.929 11-11 11-11-4.929-11-11 4.929-11 11-11zm.053 17c.466 0 .844-.378.844-.845 0-.466-.378-.844-.844-.844-.466 0-.845.378-.845.844 0 .467.379.845.845.845zm.468-2.822h-.998c-.035-1.162.182-2.054.939-2.943.491-.57 1.607-1.479 1.945-2.058.722-1.229.077-3.177-2.271-3.177-1.439 0-2.615.877-2.928 2.507l-1.018-.102c.28-2.236 1.958-3.405 3.922-3.405 1.964 0 3.615 1.25 3.615 3.22 0 1.806-1.826 2.782-2.638 3.868-.422.563-.555 1.377-.568 2.09z"
     id="path2"
     clip-path="url(#clipPath301)" />
</svg>
