<?xml version="1.0" encoding="UTF-8" standalone="no"?>
<svg
   width="24"
   height="24"
   fill-rule="evenodd"
   clip-rule="evenodd"
   version="1.1"
   id="svg4"
   sodipodi:docname="hashed.svg"
   inkscape:version="1.2.1 (9c6d41e410, 2022-07-14, custom)"
   xml:space="preserve"
   xmlns:inkscape="http://www.inkscape.org/namespaces/inkscape"
   xmlns:sodipodi="http://sodipodi.sourceforge.net/DTD/sodipodi-0.dtd"
   xmlns="http://www.w3.org/2000/svg"
   xmlns:svg="http://www.w3.org/2000/svg"><defs
     id="defs8"><clipPath
       clipPathUnits="userSpaceOnUse"
       id="clipPath301"><path
         id="path303"
         style="fill:#ff0000;fill-opacity:1;fill-rule:nonzero;stroke:none"
         d="M 0,0 V 24 H 24 V 0 Z m 11.517578,4.4589844 c 0.377593,0.00219 0.746213,0.08149 1.109375,0.1777344 0.323078,0.088229 0.632612,0.2178158 0.941406,0.3457031 0.268551,0.11121 0.537083,0.2248574 0.791016,0.3671875 0.06187,0.034678 0.122509,0.07138 0.183594,0.1074218 0.04074,0.025305 0.07932,0.053565 0.11914,0.080078 0.14095,0.011846 0.281141,0.028694 0.419922,0.0625 0.311784,0.078428 0.615378,0.1864412 0.90625,0.3242187 0.110232,0.05383 0.156602,0.072826 0.261719,0.1367188 0.184525,0.1121602 0.350287,0.2537651 0.509766,0.3984375 0.142585,0.1347465 0.286986,0.2686006 0.410156,0.421875 0.05925,0.069351 0.124263,0.1341859 0.171875,0.2128906 0.168813,0.2609922 0.304797,0.5417984 0.433594,0.8242188 0.192945,0.4592246 0.376766,0.9401431 0.363281,1.4472656 -0.0023,0.086312 -0.01814,0.171962 -0.02734,0.2578125 -0.09669,0.6590223 -0.225766,1.3174023 -0.507812,1.9257813 -0.358908,0.778348 -0.76433,1.53392 -1.158204,2.294922 -0.229441,0.445062 -0.460972,0.890395 -0.673828,1.34375 -0.171267,0.364787 -0.243804,0.538304 -0.402343,0.90625 -0.06225,0.144465 -0.123457,0.289063 -0.185547,0.433594 -0.06086,0.135801 -0.120354,0.271541 -0.183594,0.40625 -0.281582,0.599832 -0.613906,1.17636 -0.976562,1.730468 -0.342558,0.500591 -0.688527,1.018925 -1.19336,1.371094 -0.06125,0.03511 -0.122267,0.07416 -0.185547,0.105469 -0.01107,0.0055 -0.02213,0.0085 -0.0332,0.01367 -0.559856,0.461253 -1.311219,0.387665 -1.80664,-0.216797 -0.242791,-0.09956 -0.483257,-0.206052 -0.72461,-0.306641 C 9.6827786,19.44691 9.2879347,19.260663 8.8984375,19.060547 8.7017367,18.959486 8.4279719,18.816788 8.2382812,18.697266 8.1530189,18.643543 8.0729349,18.582981 7.9902344,18.525391 7.8284801,18.375518 7.7813025,18.352673 7.6699219,18.169922 7.6387339,18.118749 7.6157199,18.062762 7.5917969,18.007812 7.497323,17.790833 7.4248126,17.564514 7.3457031,17.341797 7.2564999,17.066604 7.211872,16.93705 7.1328125,16.650391 6.9425161,15.960388 6.804778,15.256278 6.7109375,14.546875 6.6848055,14.313651 6.6542895,14.081355 6.6328125,13.847656 6.5056502,12.46396 6.5162033,11.066438 6.671875,9.6855469 6.7705791,8.9937759 6.7682339,8.8819039 6.9238281,8.2304688 7.0223503,7.8179807 7.1378499,7.3868479 7.3515625,7.015625 c 0.011763,-0.020434 0.029313,-0.036867 0.044922,-0.054687 9.77e-5,-0.020572 -0.00244,-0.040763 0.00195,-0.064453 0.00961,-0.051848 0.026139,-0.1008843 0.056641,-0.1445313 0.048164,-0.065573 0.110014,-0.114535 0.1796875,-0.15625 C 7.7385262,6.528645 7.8420823,6.4623921 7.9453125,6.3945312 8.1246423,6.2795883 8.3042275,6.1644327 8.484375,6.0507812 8.5970772,5.9829899 8.7145132,5.9238582 8.8300781,5.8613281 8.8582478,5.8241635 8.8862971,5.7868486 8.9140625,5.75 9.1150394,5.492737 9.3523222,5.2706085 9.6074219,5.0683594 9.9002732,4.8426926 10.237957,4.6962815 10.587891,4.5859375 10.8923,4.4932186 11.201107,4.4641698 11.517578,4.4589844 Z m 3.699219,1.5019531 c 0.09683,0.083813 0.192372,0.1691905 0.285156,0.2578125 0.261021,0.2622436 0.500646,0.5466449 0.693359,0.8632812 0.03991,0.06557 0.07544,0.1343861 0.113282,0.2011719 0.198846,0.3781355 0.322518,0.7882776 0.353515,1.2148438 0.0063,0.087794 0.0022,0.1756629 0.0039,0.2636719 -0.0079,0.3317493 -0.06622,0.6630784 -0.181641,0.9746093 -0.07288,0.1967248 -0.110269,0.2609376 -0.199219,0.4414059 -0.138864,0.259472 -0.290616,0.511492 -0.435547,0.767578 -0.153749,0.287468 -0.328877,0.561144 -0.515625,0.828126 -0.145694,0.207293 -0.308701,0.401217 -0.470703,0.595703 -0.151438,0.178334 -0.292157,0.364632 -0.419922,0.560547 -0.153878,0.253603 -0.308829,0.512341 -0.414062,0.791015 -0.01791,0.04744 -0.0296,0.09814 -0.04492,0.146485 -0.127135,0.435015 -0.199008,0.882888 -0.267578,1.330078 -0.05716,0.388918 -0.0987,0.780277 -0.150391,1.169922 -0.03932,0.313293 -0.103683,0.620866 -0.158203,0.93164 -0.02268,0.13662 -0.03292,0.275958 -0.04101,0.414063 -0.0056,0.103942 -0.0077,0.208441 -0.0098,0.3125 -8e-4,0.04642 -0.0015,0.09225 -0.002,0.138671 -1.08e-4,0.01434 8.4e-5,0.0078 0,0.02148 -0.0026,0.428453 -0.06709,0.794622 -0.173828,1.101562 0.21496,-0.250794 0.404342,-0.525558 0.589843,-0.796875 0.354453,-0.542121 0.677961,-1.104605 0.953125,-1.691406 0.06158,-0.13132 0.118485,-0.264096 0.177735,-0.396484 0.06147,-0.143097 0.123927,-0.286659 0.185547,-0.429688 0.159195,-0.369498 0.232042,-0.547067 0.404297,-0.914062 0.214917,-0.457903 0.449913,-0.905966 0.68164,-1.355469 0.391547,-0.757124 0.793554,-1.506913 1.150391,-2.28125 0.269307,-0.581769 0.392305,-1.213728 0.484375,-1.84375 0.0087,-0.081891 0.02339,-0.1637658 0.02539,-0.2460938 C 17.844584,8.8911416 17.660655,8.4363404 17.492188,8.0371094 17.369847,7.7717602 17.243652,7.5070496 17.083984,7.2617188 17.043002,7.1955048 16.98819,7.1403892 16.9375,7.0820312 16.821089,6.9367108 16.683882,6.8091761 16.548828,6.6816406 16.402632,6.5497384 16.25333,6.4201064 16.083984,6.3183594 15.993942,6.2642593 15.948296,6.2450933 15.853516,6.1992188 15.647715,6.1023455 15.433972,6.0260255 15.216797,5.9609375 Z M 8.5136719,6.3964844 C 8.3792406,6.4813182 8.2449355,6.5666928 8.1113281,6.6523438 8.0084252,6.7200043 7.9042136,6.7866674 7.8007812,6.8535156 c -0.029427,0.025097 -0.074971,0.038203 -0.09375,0.074219 -0.00518,0.00894 -0.00484,0.013349 -0.00586,0.021484 v 0.00195 c 0.00393,0.056063 -0.010956,0.1247374 -0.064453,0.1972656 -0.013744,0.018634 -0.030221,0.034205 -0.041016,0.054687 -0.181118,0.3436862 -0.2860861,0.7324372 -0.375,1.1074219 -0.1519216,0.6407427 -0.149472,0.7367233 -0.2460928,1.4179725 -0.1524707,1.3591214 -0.1607376,2.7339314 -0.035156,4.0957034 0.021192,0.229801 0.050401,0.460121 0.076172,0.689453 0.092194,0.695005 0.2273681,1.384581 0.4140625,2.060547 0.076765,0.27794 0.122311,0.406731 0.2089844,0.673828 0.076944,0.216205 0.1463877,0.435862 0.2382812,0.646484 0.021333,0.0489 0.042158,0.09922 0.070312,0.144531 0.075207,0.121023 0.1389766,0.161475 0.2480469,0.257813 0.07204,0.04914 0.1426759,0.102506 0.2167969,0.148437 0.1840977,0.114096 0.4393952,0.246488 0.6289062,0.34375 0.3850382,0.197623 0.7752756,0.382695 1.1679688,0.564454 0.107437,0.04463 0.214947,0.09095 0.322266,0.136718 -0.155052,-0.347832 -0.247573,-0.788364 -0.244141,-1.324218 1.29e-4,-0.02017 -1.69e-4,-0.0099 0,-0.03125 5e-4,-0.05729 8.55e-4,-0.114585 0.002,-0.171875 0.003,-0.14459 0.0075,-0.289188 0.01563,-0.433594 0.01554,-0.255306 0.03584,-0.51149 0.08008,-0.763672 0.04749,-0.268068 0.103112,-0.534634 0.138672,-0.804687 0.0548,-0.410231 0.09821,-0.821187 0.160156,-1.230469 0.09775,-0.633511 0.206155,-1.267647 0.404297,-1.878907 0.04444,-0.122126 0.08463,-0.246486 0.132812,-0.367187 0.175445,-0.439521 0.415891,-0.851787 0.666016,-1.251953 0.191972,-0.286356 0.395065,-0.563808 0.61914,-0.826172 0.108433,-0.130166 0.21931,-0.258863 0.31836,-0.396484 0.1308,-0.1844781 0.247424,-0.3782582 0.353515,-0.5781254 0.120914,-0.2134869 0.245766,-0.4235313 0.367188,-0.6367187 0.01633,-0.029792 0.03962,-0.076039 0.04492,-0.050781 0.0017,0.00801 -0.0026,0.018621 0.002,0.025391 0.0025,0.00372 0.0042,-0.0095 0.0059,-0.013672 0.02123,0.00108 -4.58e-4,-0.0014 0.01953,0.042969 0.0074,0.016433 0.0078,-0.017474 0.0078,-0.017578 -0.0013,-0.00687 -0.0041,-0.012761 -0.0059,-0.019531 C 13.560003,8.6311284 13.462854,8.5231766 13.365234,8.4199219 13.242505,8.295078 13.104091,8.188427 12.960938,8.0878906 12.783287,7.9748301 12.588408,7.8988882 12.394531,7.8183594 c -0.185192,-0.076728 -0.370785,-0.1593902 -0.5625,-0.21875 -0.103265,-0.02828 -0.206222,-0.056019 -0.3125,-0.070312 0.0068,-0.00711 -0.03212,-0.00453 -0.04101,-0.00586 -0.02564,0.00289 -0.02683,2.156e-4 -0.01953,-0.00586 -0.03962,0.031091 -0.07542,0.066419 -0.109375,0.1035157 -6.6e-5,0.038851 -2.67e-4,0.078336 0,0.1171874 0.0012,0.1032271 0.0034,0.2054449 0.0078,0.3085938 10e-4,0.024379 0.0036,0.047867 0.0039,0.072266 10e-5,0.00903 0.0047,0.021334 -0.002,0.027344 -0.0046,0.00414 -0.0091,-0.00754 -0.01367,-0.011719 0.02893,0.1238597 0.09826,0.2306883 0.164063,0.3378906 0.02109,0.034367 0.05505,0.064314 0.06445,0.1035157 0.006,0.024694 -0.03511,-0.036396 -0.05274,-0.054687 C 9.4135197,6.3335275 11.075034,12.976678 9.2304688,10.5625 9.1073804,10.401401 8.9904547,10.233596 8.8828125,10.060547 c -0.013217,0.04674 -0.028207,0.09322 -0.039063,0.140625 -0.01776,0.08919 -0.034529,0.178381 -0.037109,0.269531 -0.02489,0.880726 -0.9199587,0.819906 -0.8867187,-0.06055 0.00484,-0.128117 0.02455,-0.253295 0.048828,-0.378906 0.051473,-0.237566 0.1310875,-0.4690042 0.21875,-0.6953125 0.00219,-0.00542 0.0056,-0.010219 0.00781,-0.015625 v -0.00195 C 8.1468045,9.2102068 8.1283383,9.0664633 8.1601562,8.8925781 c -0.01305,-0.00731 -0.02612,-0.014097 -0.039062,-0.021484 -0.031509,-0.017985 0.00491,-0.06279 0.029297,-0.1015626 0.00128,-0.012716 0.011302,-0.028957 0.021484,-0.044922 0.021179,-0.056451 0.044907,-0.1117591 0.066406,-0.1660156 0.00748,-0.021329 0.014048,-0.043108 0.021484,-0.064453 0.015651,-0.045692 0.031435,-0.091127 0.046875,-0.1367187 -0.015146,-0.1929 -0.022742,-0.3862189 -0.02539,-0.5800784 0.00448,-0.1548774 -0.00799,-0.3120102 0.00195,-0.4667969 0.00436,-0.067952 0.012008,-0.1352612 0.017578,-0.203125 0.032909,-0.2488343 0.1094794,-0.4861208 0.2128907,-0.7109375 z m 2.8378901,0.9863281 c -4.98e-4,-0.029081 -0.0015,0.046202 -0.002,0.1035156 -3e-5,0.00389 3e-5,0.00783 0,0.011719 0.0055,-0.026204 0.0094,-0.047574 0.002,-0.054687 2.77e-4,-0.019757 3.24e-4,-0.04079 0,-0.060548 z" /></clipPath><filter
       style="color-interpolation-filters:sRGB;"
       inkscape:label="Invert"
       id="filter167"><feColorMatrix
         type="hueRotate"
         values="180"
         result="color1"
         id="feColorMatrix163" /><feColorMatrix
         values="-1 0 0 0 1 0 -1 0 0 1 0 0 -1 0 1 -0.21 -0.72 -0.07 2 0 "
         result="color2"
         id="feColorMatrix165" /></filter><filter
       style="color-interpolation-filters:sRGB;"
       inkscape:label="Invert"
       id="filter173"><feColorMatrix
         type="hueRotate"
         values="180"
         result="color1"
         id="feColorMatrix169" /><feColorMatrix
         values="-1 0 0 0 1 0 -1 0 0 1 0 0 -1 0 1 -0.21 -0.72 -0.07 2 0 "
         result="color2"
         id="feColorMatrix171" /></filter><filter
       style="color-interpolation-filters:sRGB;"
       inkscape:label="Invert"
       id="filter179"><feColorMatrix
         type="hueRotate"
         values="180"
         result="color1"
         id="feColorMatrix175" /><feColorMatrix
         values="-1 0 0 0 1 0 -1 0 0 1 0 0 -1 0 1 -0.21 -0.72 -0.07 2 0 "
         result="color2"
         id="feColorMatrix177" /></filter><filter
       style="color-interpolation-filters:sRGB;"
       inkscape:label="Invert"
       id="filter185"><feColorMatrix
         type="hueRotate"
         values="180"
         result="color1"
         id="feColorMatrix181" /><feColorMatrix
         values="-1 0 0 0 1 0 -1 0 0 1 0 0 -1 0 1 -0.21 -0.72 -0.07 2 0 "
         result="color2"
         id="feColorMatrix183" /></filter><filter
       style="color-interpolation-filters:sRGB;"
       inkscape:label="Invert"
       id="filter191"><feColorMatrix
         type="hueRotate"
         values="180"
         result="color1"
         id="feColorMatrix187" /><feColorMatrix
         values="-1 0 0 0 1 0 -1 0 0 1 0 0 -1 0 1 -0.21 -0.72 -0.07 2 0 "
         result="color2"
         id="feColorMatrix189" /></filter><filter
       style="color-interpolation-filters:sRGB;"
       inkscape:label="Invert"
       id="filter197"><feColorMatrix
         type="hueRotate"
         values="180"
         result="color1"
         id="feColorMatrix193" /><feColorMatrix
         values="-1 0 0 0 1 0 -1 0 0 1 0 0 -1 0 1 -0.21 -0.72 -0.07 2 0 "
         result="color2"
         id="feColorMatrix195" /></filter><filter
       style="color-interpolation-filters:sRGB;"
       inkscape:label="Invert"
       id="filter203"><feColorMatrix
         type="hueRotate"
         values="180"
         result="color1"
         id="feColorMatrix199" /><feColorMatrix
         values="-1 0 0 0 1 0 -1 0 0 1 0 0 -1 0 1 -0.21 -0.72 -0.07 2 0 "
         result="color2"
         id="feColorMatrix201" /></filter><filter
       style="color-interpolation-filters:sRGB;"
       inkscape:label="Invert"
       id="filter209"><feColorMatrix
         type="hueRotate"
         values="180"
         result="color1"
         id="feColorMatrix205" /><feColorMatrix
         values="-1 0 0 0 1 0 -1 0 0 1 0 0 -1 0 1 -0.21 -0.72 -0.07 2 0 "
         result="color2"
         id="feColorMatrix207" /></filter><filter
       style="color-interpolation-filters:sRGB;"
       inkscape:label="Invert"
       id="filter215"><feColorMatrix
         type="hueRotate"
         values="180"
         result="color1"
         id="feColorMatrix211" /><feColorMatrix
         values="-1 0 0 0 1 0 -1 0 0 1 0 0 -1 0 1 -0.21 -0.72 -0.07 2 0 "
         result="color2"
         id="feColorMatrix213" /></filter><filter
       style="color-interpolation-filters:sRGB;"
       inkscape:label="Invert"
       id="filter221"><feColorMatrix
         type="hueRotate"
         values="180"
         result="color1"
         id="feColorMatrix217" /><feColorMatrix
         values="-1 0 0 0 1 0 -1 0 0 1 0 0 -1 0 1 -0.21 -0.72 -0.07 2 0 "
         result="color2"
         id="feColorMatrix219" /></filter><filter
       style="color-interpolation-filters:sRGB;"
       inkscape:label="Invert"
       id="filter227"><feColorMatrix
         type="hueRotate"
         values="180"
         result="color1"
         id="feColorMatrix223" /><feColorMatrix
         values="-1 0 0 0 1 0 -1 0 0 1 0 0 -1 0 1 -0.21 -0.72 -0.07 2 0 "
         result="color2"
         id="feColorMatrix225" /></filter><filter
       style="color-interpolation-filters:sRGB;"
       inkscape:label="Invert"
       id="filter233"><feColorMatrix
         type="hueRotate"
         values="180"
         result="color1"
         id="feColorMatrix229" /><feColorMatrix
         values="-1 0 0 0 1 0 -1 0 0 1 0 0 -1 0 1 -0.21 -0.72 -0.07 2 0 "
         result="color2"
         id="feColorMatrix231" /></filter><filter
       style="color-interpolation-filters:sRGB;"
       inkscape:label="Invert"
       id="filter239"><feColorMatrix
         type="hueRotate"
         values="180"
         result="color1"
         id="feColorMatrix235" /><feColorMatrix
         values="-1 0 0 0 1 0 -1 0 0 1 0 0 -1 0 1 -0.21 -0.72 -0.07 2 0 "
         result="color2"
         id="feColorMatrix237" /></filter><filter
       style="color-interpolation-filters:sRGB;"
       inkscape:label="Invert"
       id="filter245"><feColorMatrix
         type="hueRotate"
         values="180"
         result="color1"
         id="feColorMatrix241" /><feColorMatrix
         values="-1 0 0 0 1 0 -1 0 0 1 0 0 -1 0 1 -0.21 -0.72 -0.07 2 0 "
         result="color2"
         id="feColorMatrix243" /></filter><filter
       style="color-interpolation-filters:sRGB;"
       inkscape:label="Invert"
       id="filter251"><feColorMatrix
         type="hueRotate"
         values="180"
         result="color1"
         id="feColorMatrix247" /><feColorMatrix
         values="-1 0 0 0 1 0 -1 0 0 1 0 0 -1 0 1 -0.21 -0.72 -0.07 2 0 "
         result="color2"
         id="feColorMatrix249" /></filter><filter
       style="color-interpolation-filters:sRGB;"
       inkscape:label="Lighting"
       id="filter257"
       x="0"
       y="0"
       width="1"
       height="1"><feColorMatrix
         type="hueRotate"
         values="180"
         result="color1"
         id="feColorMatrix253" /><feColorMatrix
         values="-1 0 0 0 1 0 -1 0 0 1 0 0 -1 0 1 -0.21 -0.72 -0.07 2 0 "
         result="fbSourceGraphic"
         id="feColorMatrix255" /><feColorMatrix
         result="fbSourceGraphicAlpha"
         in="fbSourceGraphic"
         values="0 0 0 -1 0 0 0 0 -1 0 0 0 0 -1 0 0 0 0 1 0"
         id="feColorMatrix410" /><feComponentTransfer
         id="feComponentTransfer412"
         in="blur"
         result="fbSourceGraphic"><feFuncR
           id="feFuncR414"
           type="gamma"
           amplitude="16.6989"
           exponent="15.9045"
           offset="0.890135" /><feFuncG
           id="feFuncG416"
           type="gamma"
           amplitude="16.6989"
           exponent="15.9045"
           offset="0.890135" /><feFuncB
           id="feFuncB418"
           type="gamma"
           amplitude="16.6989"
           exponent="15.9045"
           offset="0.890135" /></feComponentTransfer><feColorMatrix
         result="fbSourceGraphicAlpha"
         in="fbSourceGraphic"
         values="0 0 0 -1 0 0 0 0 -1 0 0 0 0 -1 0 0 0 0 1 0"
         id="feColorMatrix420" /><feComponentTransfer
         id="feComponentTransfer422"
         in="blur"
         result="fbSourceGraphic"><feFuncR
           id="feFuncR424"
           type="gamma"
           amplitude="16.6989"
           exponent="15.9045"
           offset="0.890135" /><feFuncG
           id="feFuncG426"
           type="gamma"
           amplitude="16.6989"
           exponent="15.9045"
           offset="0.890135" /><feFuncB
           id="feFuncB428"
           type="gamma"
           amplitude="16.6989"
           exponent="15.9045"
           offset="0.890135" /></feComponentTransfer><feColorMatrix
         result="fbSourceGraphicAlpha"
         in="fbSourceGraphic"
         values="0 0 0 -1 0 0 0 0 -1 0 0 0 0 -1 0 0 0 0 1 0"
         id="feColorMatrix430" /><feComponentTransfer
         id="feComponentTransfer432"
         in="blur"
         result="fbSourceGraphic"><feFuncR
           id="feFuncR434"
           type="gamma"
           amplitude="16.6989"
           exponent="15.9045"
           offset="0.890135" /><feFuncG
           id="feFuncG436"
           type="gamma"
           amplitude="16.6989"
           exponent="15.9045"
           offset="0.890135" /><feFuncB
           id="feFuncB438"
           type="gamma"
           amplitude="16.6989"
           exponent="15.9045"
           offset="0.890135" /></feComponentTransfer><feColorMatrix
         result="fbSourceGraphicAlpha"
         in="fbSourceGraphic"
         values="0 0 0 -1 0 0 0 0 -1 0 0 0 0 -1 0 0 0 0 1 0"
         id="feColorMatrix519" /><feComponentTransfer
         id="feComponentTransfer521"
         in="blur"
         result="fbSourceGraphic"><feFuncR
           id="feFuncR523"
           type="gamma"
           amplitude="16.6989"
           exponent="15.9045"
           offset="0.684488" /><feFuncG
           id="feFuncG525"
           type="gamma"
           amplitude="16.6989"
           exponent="15.9045"
           offset="0.684488" /><feFuncB
           id="feFuncB527"
           type="gamma"
           amplitude="16.6989"
           exponent="15.9045"
           offset="0.684488" /></feComponentTransfer><feColorMatrix
         result="fbSourceGraphicAlpha"
         in="fbSourceGraphic"
         values="0 0 0 -1 0 0 0 0 -1 0 0 0 0 -1 0 0 0 0 1 0"
         id="feColorMatrix188" /><feComponentTransfer
         id="feComponentTransfer190"
         in="blur"
         result="component"><feFuncR
           id="feFuncR192"
           type="gamma"
           amplitude="16.6989"
           exponent="15.9045"
           offset="-1" /><feFuncG
           id="feFuncG194"
           type="gamma"
           amplitude="16.6989"
           exponent="15.9045"
           offset="-1" /><feFuncB
           id="feFuncB196"
           type="gamma"
           amplitude="16.6989"
           exponent="15.9045"
           offset="-1" /></feComponentTransfer></filter><clipPath
       clipPathUnits="userSpaceOnUse"
       id="clipPath786"><path
         id="path788"
         style="fill:#ff0000;fill-opacity:1;fill-rule:nonzero;stroke:none;stroke-width:16.3127"
         d="M -0.00135014,0.0032975 V 50.766157 C 0.88929497,49.39587 1.7784357,48.024479 2.6845664,46.670842 6.1320316,41.520864 10.497652,35.343742 14.131687,30.321328 c 1.592531,-2.20093 9.308852,-12.791642 11.25527,-14.952662 2.669544,-2.963872 5.672835,-5.6021009 8.505402,-8.4128567 5.180469,3.2031527 10.508724,6.1971527 15.827723,9.2065227 2.786781,-3.042799 5.630741,-2.78994 11.830823,1.015892 8.05097,-3.203717 16.355121,-5.80155 24.620902,-8.3811103 9.691531,-2.9166033 19.390563,-5.8202916 29.065453,-8.7938162 z m 242.49990014,0 c 2.15282,0.65759462 4.35661,1.6023444 6.58689,2.8254501 1.51304,0.5591941 3.31318,0.9262514 4.60443,1.5873306 3.58085,-1.0137173 7.58834,-1.6380373 12.08662,-1.7460645 2.77327,-0.066594 5.71214,0.070739 8.82516,0.4127058 11.18755,1.2289417 22.19715,3.5169496 33.15827,6.0001129 8.7705,2.1240376 17.56885,4.3244876 25.99585,7.5874446 5.72889,2.21825 7.30063,3.112864 12.72613,5.746139 7.44089,3.81039 14.56756,8.18635 21.48731,12.857384 5.43272,3.501337 9.69939,7.891109 13.78132,12.825638 3.07148,3.720336 5.62239,7.761012 7.76998,12.063721 0.1642,0.332449 0.29534,0.679022 0.44759,1.015892 V 0.0032975 Z M 25.323006,20.352887 c -0.208243,0.204398 -0.728997,0.950111 -0.47963,1.142871 0.03029,0.02341 0.06565,0.04015 0.09594,0.06355 0.130643,-0.357237 0.347563,-0.880787 0.447657,-1.174632 0.03373,-0.09915 0.0068,-0.0998 -0.06401,-0.03169 z m 163.936844,37.30229 c -3.25557,0.06794 -6.52163,0.144825 -9.75244,0.571435 -3.44337,0.701437 -6.71257,1.998076 -9.97626,3.269903 -5.88345,2.304807 -11.75689,4.702301 -17.84216,6.444569 -4.38681,1.217884 -8.78207,2.350529 -13.20576,3.428636 -4.75063,1.13901 -9.51629,2.233747 -14.26094,3.396888 -3.82531,0.983561 -7.66157,2.005706 -11.38317,3.333398 -1.86691,0.745951 -3.64006,1.627969 -5.30788,2.761955 -1.89309,1.188466 -3.80434,2.340915 -5.65961,3.587371 -1.70841,1.261564 -3.379272,2.556902 -5.020107,3.904834 -2.460882,1.963921 -4.942334,3.934995 -7.290345,6.03186 -0.795217,0.725996 -1.634789,1.416814 -2.238263,2.317504 -1.403709,2.0283 -2.678705,4.11593 -4.060851,6.15885 -1.001495,1.54391 -1.980251,3.10584 -2.845792,4.73024 -0.371604,0.54523 -0.568047,1.36906 -0.767405,1.96829 -0.656923,1.97462 -1.262099,3.95201 -1.886537,5.93662 -1.793952,5.84983 -3.425213,11.76716 -4.86023,17.71462 -1.386697,5.45458 -2.762958,10.89767 -4.028876,16.38126 -3.638453,15.76139 -11.289736,25.17885 -19.600795,29.11166 0.16589,2.82806 0.284189,5.67724 0.38371,8.5081 0.07596,2.3083 0.05222,4.5998 0.383695,6.88902 0.411721,2.14663 0.695796,4.336 0.927286,6.50806 0.118529,1.17909 0.185733,2.34128 0.255802,3.52386 0.268555,4.53244 0.06925,8.66405 -0.47963,12.41294 0.503368,3.44833 0.960095,6.90408 1.215062,10.38115 0.105267,1.63111 0.04764,3.27644 0.03192,4.92074 2.172463,3.07867 4.23492,6.57348 6.043311,10.66686 0.143904,0.32574 0.273418,0.65765 0.415684,0.9842 0.140302,0.28933 0.309418,0.46682 0.447657,0.76184 0.479123,1.0232 0.221013,0.46341 0.831351,1.74608 0.848737,1.81877 1.704845,3.64681 2.494065,5.49216 0.842762,2.00667 1.69153,3.98408 2.430115,6.03186 0.714149,1.97039 1.402153,3.94381 2.142338,5.90487 0.216871,0.60823 0.391307,1.23191 0.607523,1.8413 4.235175,2.64387 8.543638,6.2431 12.758104,11.07958 1.225392,1.40616 2.415703,2.82998 3.581222,4.2858 1.101445,1.36828 2.194648,2.75084 3.325421,4.09531 1.419097,1.49751 2.876424,2.96857 4.284675,4.47628 1.309443,1.39722 2.589521,2.7951 3.900975,4.19055 1.580469,1.6285 3.19974,3.24437 4.828265,4.82548 1.34814,1.29319 2.70715,2.56464 4.15677,3.74611 2.17037,1.7633 4.3904,3.46746 6.55492,5.2382 1.63659,1.30099 3.30491,2.57926 5.02011,3.77785 1.35683,0.92097 2.68336,1.8781 4.1248,2.66671 1.22354,0.68463 2.5005,1.28961 3.80504,1.80956 1.96748,0.85741 3.89766,1.74413 5.81949,2.69845 1.56216,0.7529 3.1444,1.49263 4.73233,2.19052 2.80717,1.21794 5.67988,2.30203 8.53738,3.39689 2.8569,1.10691 5.71896,2.20988 8.56935,3.33341 2.57056,1.00792 5.13426,1.99617 7.67405,3.07942 1.82235,0.7607 3.67901,1.43801 5.56368,2.03178 2.49065,0.69357 5.04789,1.11634 7.61008,1.46029 3.30638,0.46861 6.61931,0.93673 9.91232,1.49214 2.40412,0.41464 4.80566,0.83514 7.22639,1.14284 1.6499,0.16953 3.29651,0.33288 4.95617,0.34914 1.31003,0.0293 2.62274,-0.0293 3.93294,-0.0325 1.67784,-0.0195 3.34271,-0.0536 5.02011,-0.0959 3.20038,-0.0829 6.39484,-0.16092 9.59255,-0.31745 2.71223,-0.13328 5.44876,-0.22626 8.15368,-0.47625 1.82293,-0.17164 3.64769,-0.30997 5.46777,-0.50794 2.46529,-0.35191 4.91528,-0.9052 7.41823,-0.95234 1.66825,-0.0748 3.32231,-0.13004 4.98814,-0.25406 2.0933,-0.14791 4.17934,-0.33435 6.26713,-0.50794 1.42561,-1.20038 2.11298,-2.44261 3.83704,-3.61911 1.5556,-1.06157 3.11081,-2.11603 4.66837,-3.17467 2.2705,-1.5414 4.5378,-3.08086 6.8427,-4.57152 2.14826,-1.36406 4.35417,-2.67509 6.61885,-3.84134 1.29481,-0.70804 2.57039,-1.43411 3.83702,-2.19052 0.75701,-0.44781 1.50338,-0.93088 2.2063,-1.46029 1.24454,-0.9798 2.46558,-1.99648 3.67714,-3.01593 1.96323,-1.76038 3.81734,-3.61939 5.85146,-5.30169 1.59653,-1.34666 3.25439,-2.61924 4.76431,-4.06357 1.41006,-1.29595 2.82977,-2.58729 4.18875,-3.93659 1.46998,-1.43037 2.86877,-2.96047 4.31665,-4.41277 1.4392,-1.47556 2.85105,-2.93187 4.28468,-4.41278 0.69807,-0.72412 1.41317,-1.46711 2.11036,-2.19052 1.16662,-1.43005 2.25733,-2.9244 3.38937,-4.38103 1.21622,-1.55927 2.41635,-3.14129 3.54925,-4.762 1.14386,-1.56919 2.09999,-3.22428 3.19752,-4.82549 1.32788,-1.92714 2.72977,-3.80997 3.99689,-5.77789 0.67205,-1.01638 1.34949,-2.06283 2.04642,-3.04767 0.51307,-0.99233 0.98129,-2.03379 1.37486,-3.07942 0.37261,-0.94779 0.66664,-1.90457 0.92727,-2.88896 0.69824,-2.71755 1.38599,-5.4496 2.33419,-8.09537 1.48536,-3.98588 3.28076,-7.83252 5.46775,-11.4923 1.65396,-2.84919 3.36623,-5.68338 4.8922,-8.60332 0.85344,-1.71122 1.28188,-3.53412 1.69469,-5.39694 0.77469,-3.45683 1.49258,-6.93999 2.01443,-10.44464 0.1457,-0.91901 0.3271,-1.84177 0.47968,-2.76196 -1.35997,-0.29696 -2.74919,-0.45381 -4.09281,-0.82539 -2.31844,-0.64107 -1.35031,-4.58437 -1.85458,-6.92076 -0.27995,-1.29725 -0.33561,-2.64948 -0.47968,-3.96832 -0.32267,-2.94412 -0.48311,-5.90272 -0.67155,-8.85731 -0.29304,-4.74277 -0.39618,-9.4726 -0.47968,-14.22249 -0.0868,-3.50218 -0.0737,-7.00619 0,-10.50814 0.0442,-3.40059 0.11788,-6.80212 0.41567,-10.19066 0.32514,-2.16363 0.58806,-4.32623 0.67155,-6.50806 0.1755,-4.31095 0.0278,-8.612 -0.0639,-12.92088 -0.29599,-0.35056 -0.63373,-0.66321 -0.92727,-1.0159 -2.54904,-3.06413 -4.77688,-6.38191 -6.90654,-9.74467 -1.21539,-1.82728 -2.38713,-3.68877 -3.48529,-5.58741 -0.54112,-0.99688 -1.06903,-1.99769 -1.72668,-2.92069 -0.71405,-1.02097 -1.51398,-1.95131 -2.33417,-2.88894 -1.04707,-1.17163 -2.11134,-2.32325 -3.2295,-3.42863 -1.16547,-1.12826 -2.36663,-2.25711 -3.58122,-3.3334 -1.25298,-1.07078 -2.59395,-2.02314 -3.93294,-2.98418 -3.08095,-2.18353 -6.18679,-4.32878 -9.33677,-6.412823 -3.0145,-1.973908 -5.99949,-3.999078 -9.017,-5.968366 -1.99537,-1.279004 -4.01515,-2.50015 -6.01135,-3.77785 -1.53034,-1.051737 -3.13001,-2.025706 -4.70035,-3.015928 -1.95154,-1.294972 -3.86515,-2.613536 -5.81949,-3.904836 -1.57238,-1.064938 -3.16684,-2.102594 -4.79626,-3.079422 -1.32285,-0.782393 -2.67926,-1.518928 -4.02888,-2.254012 -1.86027,-0.95245 -3.54359,-2.164289 -5.30789,-3.269903 -0.42958,-0.255712 -0.87374,-0.519535 -1.31101,-0.761919 -0.62964,-0.328125 -1.23915,-0.694496 -1.85456,-1.047637 4.78347,2.674085 7.72036,3.342715 10.10415,3.428636 -4.28373,-1.580484 -8.36622,-3.603644 -11.95871,-6.444566 -2.44196,-2.002638 -4.80242,-4.117272 -6.9706,-6.412818 -0.26882,-0.284547 -0.50702,-0.572914 -0.76733,-0.857153 -0.68628,0.03446 -1.05693,0.31834 -1.79061,0.317462 0.25785,0.390607 0.57807,0.7896 0.99129,1.174632 -0.41714,-0.257208 -0.83723,-0.524054 -1.24701,-0.793664 -0.17337,-0.111504 -0.33872,-0.236743 -0.5116,-0.349207 -1.44542,-0.03495 -2.15399,0.492358 -3.83702,0.285718 -2.38398,-0.377798 -4.74434,-0.800718 -7.0985,-1.333355 -2.52657,-0.53995 -5.09581,-0.898828 -7.64208,-1.333354 -2.66523,-0.418726 -5.3344,-0.863996 -8.02576,-1.079381 -3.44914,-0.192662 -6.90814,-0.06421 -10.35998,-0.190484 -4.83452,-0.0907 -9.68085,-0.212427 -14.51672,-0.190484 z m 73.7348,17.206672 c 0.0589,0.02162 0.1015,0.07379 0.16044,0.09525 0.68399,0.2253 0.81119,0.251957 1.0232,0.317462 -0.25506,0.01674 -0.9032,-0.402618 -1.18315,-0.412712 z m 126.97352,18.794004 c -0.71969,1.093832 -1.59932,2.253429 -2.74987,3.619117 -0.54648,0.64861 -1.1586,1.214779 -1.79062,1.777809 0.006,0.06388 0.0262,0.126459 0.0327,0.190484 1.5556,2.934507 3.03519,5.912137 4.50851,8.889057 z m 0,231.909127 c -1.80206,1.18055 -3.261,2.02304 -9.91232,5.84138 -0.87062,0.44927 -0.84787,0.43741 -1.53481,0.7937 0.1015,0.2877 0.21299,0.57833 0.31973,0.85709 0.48869,1.27791 -1.04219,2.27392 -2.27024,3.30165 -3.67033,8.24392 -5.07623,11.86277 -9.17688,12.09547 20.02236,13.99803 14.68735,38.45597 -13.52551,41.52458 h 36.10001 z M -0.00135014,355.12109 v 34.85779 H 44.252323 c -3.30503,-3.12977 -6.473353,-6.31449 -11.57502,-11.93673 -6.639428,-7.31688 -12.874732,-14.97885 -18.833393,-22.85757 -4.4844581,1.5147 -9.1992741,1.85825 -13.84526014,-0.0635 z M 294.13849,384.89942 c -1.60373,1.68482 -2.37703,3.59408 -4.57245,5.07946 h 51.67192 c -0.38882,-0.0374 -0.75668,-0.052 -1.15107,-0.0959 -0.90124,-0.10077 -1.81893,-0.19879 -2.71788,-0.31744 -0.99521,-0.13166 -7.816,-1.14479 -8.69725,-1.26979 -5.06129,-0.71778 -10.13962,-1.30879 -15.22021,-1.87306 -6.41861,-0.65439 -12.86957,-1.10854 -19.31301,-1.52384 z m -166.5588,2.06353 c 0.13474,0.31192 0.31613,0.59328 0.41568,0.92064 0.20283,0.66708 0.53366,1.39722 0.79938,2.09528 h 15.47599 c -0.58707,-0.0845 -1.17164,-0.1671 -1.75863,-0.25389 -3.70908,-0.59101 -6.79835,-1.04467 -10.48787,-1.77783 -1.49322,-0.29664 -2.96505,-0.63099 -4.44455,-0.9842 z" /></clipPath></defs><sodipodi:namedview
     id="namedview6"
     pagecolor="#ffffff"
     bordercolor="#000000"
     borderopacity="0.25"
     inkscape:showpageshadow="2"
     inkscape:pageopacity="0.0"
     inkscape:pagecheckerboard="0"
     inkscape:deskcolor="#d1d1d1"
     showgrid="false"
     inkscape:zoom="24.508824"
     inkscape:cx="21.52286"
     inkscape:cy="11.179647"
     inkscape:window-width="1920"
     inkscape:window-height="1011"
     inkscape:window-x="0"
     inkscape:window-y="0"
     inkscape:window-maximized="1"
     inkscape:current-layer="svg4" /><path
     d="M12 0c6.623 0 12 5.377 12 12s-5.377 12-12 12-12-5.377-12-12 5.377-12 12-12zm0 1c6.071 0 11 4.929 11 11s-4.929 11-11 11-11-4.929-11-11 4.929-11 11-11zm.053 17c.466 0 .844-.378.844-.845 0-.466-.378-.844-.844-.844-.466 0-.845.378-.845.844 0 .467.379.845.845.845zm.468-2.822h-.998c-.035-1.162.182-2.054.939-2.943.491-.57 1.607-1.479 1.945-2.058.722-1.229.077-3.177-2.271-3.177-1.439 0-2.615.877-2.928 2.507l-1.018-.102c.28-2.236 1.958-3.405 3.922-3.405 1.964 0 3.615 1.25 3.615 3.22 0 1.806-1.826 2.782-2.638 3.868-.422.563-.555 1.377-.568 2.09z"
     id="path2"
     clip-path="url(#clipPath301)" /><g
     id="g596"
     transform="matrix(0.0610825,0,0,0.06152228,0.10945747,0.01151588)"
     clip-path="url(#clipPath786)"><g
       id="g539">
	<g
   id="g537">
		<path
   d="m 194.99,30.276 c -90.824,0 -164.714,73.891 -164.714,164.715 0,90.824 73.891,164.714 164.714,164.714 90.823,0 164.714,-73.891 164.714,-164.714 C 359.705,104.167 285.814,30.276 194.99,30.276 Z m 0,314.429 c -82.553,0 -149.714,-67.162 -149.714,-149.714 0,-82.553 67.162,-149.715 149.714,-149.715 82.553,0 149.714,67.162 149.714,149.715 10e-4,82.552 -67.161,149.714 -149.714,149.714 z"
   id="path531" />
		<path
   d="M 320.337,213.328 H 280.008 V 176.65 h 40.329 c 4.143,0 7.5,-3.358 7.5,-7.5 0,-4.142 -3.357,-7.5 -7.5,-7.5 h -40.329 v -36.67 h 16.776 c 4.143,0 7.5,-3.358 7.5,-7.5 0,-4.142 -3.357,-7.5 -7.5,-7.5 H 280.008 V 93.202 c 0,-4.142 -3.357,-7.5 -7.5,-7.5 -4.143,0 -7.5,3.358 -7.5,7.5 v 16.777 H 228.33 V 69.65 c 0,-4.142 -3.357,-7.5 -7.5,-7.5 -4.143,0 -7.5,3.358 -7.5,7.5 v 40.329 H 176.652 V 69.65 c 0,-4.142 -3.358,-7.5 -7.5,-7.5 -4.142,0 -7.5,3.358 -7.5,7.5 v 40.329 h -36.67 V 93.194 c 0,-4.142 -3.358,-7.5 -7.5,-7.5 -4.142,0 -7.5,3.358 -7.5,7.5 v 16.785 H 93.196 c -4.142,0 -7.5,3.358 -7.5,7.5 0,4.142 3.358,7.5 7.5,7.5 h 16.785 v 36.67 H 69.652 c -4.142,0 -7.5,3.358 -7.5,7.5 0,4.142 3.358,7.5 7.5,7.5 h 40.329 v 36.678 H 69.652 c -4.142,0 -7.5,3.358 -7.5,7.5 0,4.142 3.358,7.5 7.5,7.5 h 40.329 v 36.678 H 93.196 c -4.142,0 -7.5,3.358 -7.5,7.5 0,4.142 3.358,7.5 7.5,7.5 h 16.785 v 16.785 c 0,4.142 3.358,7.5 7.5,7.5 4.142,0 7.5,-3.358 7.5,-7.5 v -16.785 h 36.67 v 40.329 c 0,4.142 3.358,7.5 7.5,7.5 4.142,0 7.5,-3.358 7.5,-7.5 v -40.329 h 36.678 v 40.329 c 0,4.142 3.357,7.5 7.5,7.5 4.143,0 7.5,-3.358 7.5,-7.5 v -40.329 h 36.679 v 16.777 c 0,4.142 3.357,7.5 7.5,7.5 4.143,0 7.5,-3.358 7.5,-7.5 v -16.777 h 16.776 c 4.143,0 7.5,-3.358 7.5,-7.5 0,-4.142 -3.357,-7.5 -7.5,-7.5 h -16.776 v -36.678 h 40.329 c 4.143,0 7.5,-3.358 7.5,-7.5 0,-4.142 -3.357,-7.499 -7.5,-7.499 z m -55.329,0 H 228.33 V 176.65 h 36.679 v 36.678 z m -51.678,0 H 176.652 V 176.65 h 36.678 z m 51.678,-88.349 v 36.67 H 228.33 v -36.67 c 0,0 36.678,0 36.678,0 z m -51.678,0 v 36.67 h -36.678 v -36.67 c 0,0 36.678,0 36.678,0 z m -88.349,0 h 36.67 v 36.67 h -36.67 z m 0,51.67 h 36.67 v 36.678 h -36.67 z m 0,88.357 v -36.678 h 36.67 v 36.678 z m 51.67,0 v -36.678 h 36.678 v 36.678 z m 88.357,0 H 228.33 v -36.678 h 36.679 v 36.678 z"
   id="path533" />
		<path
   d="m 352.382,309.953 c 23.625,-32.257 37.599,-72.006 37.599,-114.962 0,-42.958 -13.975,-82.708 -37.602,-114.966 L 366.81,65.594 c 2.929,-2.929 2.929,-7.678 0,-10.606 l -31.819,-31.82 c -2.929,-2.929 -7.677,-2.929 -10.607,0 L 309.953,37.599 C 277.695,13.973 237.947,0 194.99,0 152.033,0 112.285,13.974 80.028,37.599 L 65.596,23.167 c -2.929,-2.929 -7.678,-2.929 -10.606,0 l -31.82,31.82 c -2.929,2.929 -2.929,7.678 0,10.606 L 37.601,80.024 C 13.974,112.283 0,152.033 0,194.991 0,237.948 13.973,277.696 37.599,309.953 L 23.17,324.381 c -1.407,1.406 -2.197,3.314 -2.197,5.303 0,1.989 0.79,3.897 2.197,5.303 l 31.82,31.82 c 1.464,1.465 3.384,2.197 5.303,2.197 1.919,0 3.839,-0.732 5.303,-2.197 l 14.428,-14.428 c 32.258,23.627 72.008,37.602 114.966,37.602 42.958,0 82.708,-13.975 114.966,-37.602 l 14.428,14.427 c 1.464,1.465 3.384,2.197 5.303,2.197 1.919,0 3.839,-0.732 5.304,-2.197 l 31.819,-31.82 c 2.929,-2.929 2.929,-7.678 0,-10.606 z M 329.687,39.077 350.9,60.291 342.998,68.193 C 336.478,60.593 329.385,53.5 321.785,46.98 Z M 39.08,60.291 60.293,39.078 68.195,46.98 c -7.6,6.52 -14.693,13.613 -21.214,21.213 z m 21.213,290.606 -21.213,-21.213 7.899,-7.899 c 6.52,7.6 13.613,14.693 21.213,21.214 z M 15,194.991 C 15,95.744 95.743,15 194.99,15 c 99.248,0 179.991,80.744 179.991,179.991 0,99.247 -80.743,179.99 -179.991,179.99 C 95.743,374.981 15,294.238 15,194.991 Z m 314.687,155.906 -7.899,-7.898 c 7.6,-6.52 14.693,-13.613 21.213,-21.214 l 7.899,7.898 z"
   id="path535" />
	</g>
</g><g
       id="g541">
</g><g
       id="g543">
</g><g
       id="g545">
</g><g
       id="g547">
</g><g
       id="g549">
</g><g
       id="g551">
</g><g
       id="g553">
</g><g
       id="g555">
</g><g
       id="g557">
</g><g
       id="g559">
</g><g
       id="g561">
</g><g
       id="g563">
</g><g
       id="g565">
</g><g
       id="g567">
</g><g
       id="g569">
</g></g></svg>
