<svg id="Capa_1" enable-background="new 0 0 512 512" height="512" viewBox="0 0 512 512" width="512" xmlns="http://www.w3.org/2000/svg"><g><g><g><path d="m256.001 386.54c-27.383 0-49.66-22.282-49.66-49.67v-17.88c0-44.787 28.214-84.861 70.208-99.721 26.168-9.246 43.027-35.129 41.002-62.945-2.219-30.422-26.848-54.863-57.289-56.851-32.22-2.135-60.942 21.106-65.383 52.903-.396 2.872-.598 5.793-.598 8.672 0 27.388-22.277 49.67-49.66 49.67-27.388 0-49.67-22.282-49.67-49.67 0-7.474.522-15.008 1.552-22.396 11.59-83.05 86.377-143.807 170.248-138.306 31.284 2.049 61.109 13.203 86.25 32.256 3.301 2.502 3.949 7.206 1.448 10.507-2.502 3.302-7.206 3.949-10.507 1.448-22.794-17.274-49.825-27.387-78.171-29.244-76.068-4.984-143.902 50.104-154.411 125.413-.935 6.702-1.408 13.54-1.408 20.323 0 19.117 15.553 34.67 34.67 34.67 19.111 0 34.66-15.553 34.66-34.67 0-3.563.25-7.175.741-10.736 5.525-39.554 41.203-68.454 81.225-65.807 37.864 2.472 68.504 32.878 71.265 70.728 2.516 34.54-18.44 66.687-50.961 78.177-36.011 12.743-60.209 47.134-60.209 85.579v17.88c0 19.117 15.548 34.67 34.66 34.67 19.117 0 34.67-15.553 34.67-34.67v-17.88c0-9.122 5.625-17.244 13.996-20.209 61.896-21.881 101.779-82.981 96.995-148.585-2.223-30.542-13.895-59.185-33.753-82.832-2.664-3.172-2.252-7.903.92-10.566 3.172-2.664 7.903-2.252 10.566.92 21.901 26.079 34.774 57.681 37.227 91.389 5.275 72.325-38.704 139.689-106.95 163.816-2.391.847-4 3.287-4 6.069v17.88c-.003 27.386-22.285 49.668-49.673 49.668z"/></g><path d="m256.001 512c-3.504 0-7.003-.369-10.4-1.097-4.05-.867-6.631-4.854-5.763-8.904.867-4.051 4.855-6.632 8.904-5.763 2.367.507 4.81.764 7.26.764 19.117 0 34.67-15.553 34.67-34.67v-.35c0-19.112-15.553-34.66-34.67-34.66-19.112 0-34.66 15.548-34.66 34.66v.35c0 5.909 1.511 11.736 4.368 16.853 2.02 3.616.726 8.186-2.891 10.205-3.615 2.021-8.185.726-10.205-2.891-4.104-7.347-6.272-15.704-6.272-24.167v-.35c0-27.383 22.277-49.66 49.66-49.66 27.388 0 49.67 22.277 49.67 49.66v.35c-.001 27.388-22.283 49.67-49.671 49.67z"/></g></g></svg>