<?xml version="1.0"?>
<svg xmlns="http://www.w3.org/2000/svg" xmlns:xlink="http://www.w3.org/1999/xlink" xmlns:svgjs="http://svgjs.com/svgjs" version="1.1" width="512" height="512" x="0" y="0" viewBox="0 0 512 512" style="enable-background:new 0 0 512 512" xml:space="preserve" class=""><g><g><path d="m7.32 353.75v81.767c0 22.758 12.344 39.643 35.102 39.643l26.539 1.564h401.832c22.758 0 41.207-18.449 41.207-41.207v-8.839l-10.817-30.823 1.03-42.105z" fill="#bfbdbe" data-original="#7a6d79" class=""/><path d="m502.213 353.752 9.787 13.774v59.153c-11.682 8.169-25.899 12.96-41.207 12.96h-429.586c-.034 0-.069 0-.103 0-5.527-.008-9.461 5.442-7.486 10.604 5.924 15.485 20.922 26.482 38.495 26.482h-30.906c-22.758 0-41.207-18.449-41.207-41.208v-81.765z" fill="#dadada" data-original="#685e68" class=""/><path d="m470.793 408.733h-401.407l-27.248-1.054c-22.758 0-39.922-19.942-39.922-42.701l2.155-285.003c0-22.758 19.999-43.665 42.757-43.665l21.974-1.035h401.69c22.758 0 41.207 18.449 41.207 41.207v291.043c.001 22.759-18.448 41.208-41.206 41.208z" fill="#fafafa" data-original="#918291" class=""/><path d="m72.113 408.733h-30.906c-22.756 0-41.207-18.451-41.207-41.207v-291.043c0-22.757 18.451-41.207 41.207-41.207h30.905c-22.757 0-41.207 18.45-41.207 41.207v291.043c0 22.756 18.451 41.207 41.208 41.207z" fill="#bfbdbe" data-original="#7a6d79" class=""/><g fill="#f5f8f9"><path d="m460.493 259.719c-.029 0-.059 0-.089 0-7.041.04-14.447.069-20.732.082-.57.001-1.023-.461-1.023-1.03v-89.574c0-8.321-6.394-15.48-14.706-15.872-8.874-.418-16.2 6.653-16.2 15.435v106.758c0 7.385 5.367 13.638 12.651 14.851 1.236.206 1.392.352 14.072.352 5.66 0 13.816-.029 25.673-.095 8.309-.046 15.428-6.463 15.788-14.764.385-8.86-6.683-16.143-15.434-16.143z" fill="#3b3b3b" data-original="#f5f8f9" class=""/><path d="m154.24 248.392c-6.538-5.487-16.285-4.635-21.77 1.904-4.254 5.423-12.799 9.645-21.711 9.512-20.842 0-37.798-16.956-37.798-37.798s16.956-37.798 37.798-37.798c7.577 0 14.881 2.229 21.123 6.446 7.07 4.777 16.677 2.92 21.455-4.153 4.778-7.071 2.919-16.677-4.153-21.455-11.37-7.683-24.657-11.743-38.425-11.743-37.883 0-68.703 30.82-68.703 68.703s30.82 68.703 68.703 68.703c17.796-.13 33.794-6.854 45.385-20.552 5.487-6.537 4.635-16.283-1.904-21.769z" fill="#3b3b3b" data-original="#f5f8f9" class=""/><path d="m250.541 153.307h-58.379c-8.321 0-15.48 6.394-15.872 14.706-.418 8.874 6.653 16.2 15.435 16.2h12.807c.569 0 1.03.461 1.03 1.03v89.582c0 8.321 6.394 15.48 14.706 15.872 8.874.418 16.2-6.653 16.2-15.435v-90.018c0-.569.461-1.03 1.03-1.03h12.607c8.321 0 15.48-6.394 15.872-14.706.417-8.875-6.654-16.201-15.436-16.201z" fill="#3b3b3b" data-original="#f5f8f9" class=""/><path d="m381.112 196.438c0-23.783-20.051-43.131-44.698-43.131h-28.301c-.006 0-.011.001-.017.001l-.017-.001c-8.499-.441-15.453 6.162-15.453 14.672v106.845c0 8.321 6.394 15.48 14.706 15.872 8.874.418 16.2-6.653 16.2-15.435v-21.747c0-.95 1.176-1.394 1.803-.681l28.725 32.637c3.054 3.471 7.319 5.243 11.606 5.243 3.626 0 7.268-1.269 10.203-3.853 6.406-5.638 7.029-15.402 1.39-21.809l-23.952-27.215c-.473-.537-.262-1.368.4-1.637 16.082-6.536 27.405-21.893 27.405-39.761zm-44.698-12.225c7.477 0 13.793 5.599 13.793 12.225 0 6.628-6.316 12.226-13.793 12.226-2.839 0-7.229.016-11.706.036-.569.003-1.033-.457-1.035-1.026-.021-4.345-.036-8.562-.036-11.236 0-2.315-.01-6.637-.021-11.191-.001-.57.46-1.034 1.03-1.034z" fill="#3b3b3b" data-original="#f5f8f9" class=""/></g></g></g></svg>
