<?xml version="1.0"?>
<svg xmlns="http://www.w3.org/2000/svg" xmlns:xlink="http://www.w3.org/1999/xlink" xmlns:svgjs="http://svgjs.com/svgjs" version="1.1" width="512" height="512" x="0" y="0" viewBox="0 0 512 512" style="enable-background:new 0 0 512 512" xml:space="preserve" class=""><g><g><path d="m418.299 148.81c-12.406 0-22.5 10.094-22.5 22.5v103.294c0 13.354 8.782 22.482 18.384 22.482 7.237.166 25.581.113 40.444.018 12.406-.07 22.442-10.22 22.374-22.627-.07-12.336-10.163-22.373-22.498-22.373-.015 0-.114 0-.129 0-4.509.025-9.172.047-13.574.062v-80.856c-.001-12.407-10.095-22.5-22.501-22.5zm36.117 118.294h.086c4.111 0 7.475 3.346 7.498 7.458.023 4.135-3.323 7.519-7.458 7.542-13.34.007-30.877 0-37.514 0-4.29 0-6.229-2.922-6.229-7.5v-103.294c0-4.136 3.364-7.5 7.5-7.5s7.5 3.364 7.5 7.5v88.376c0 1.991.792 3.901 2.201 5.309 1.406 1.403 3.312 2.191 5.299 2.191h.014c6.313-.012 13.927-.041 21.103-.082z" fill="#ffffff" data-original="#000000" style="--darkreader-inline-fill: #181a1b;" data-darkreader-inline-fill=""/><path d="m49.826 191.71c-3.856-1.515-8.208.385-9.723 4.24-3.386 8.625-5.103 17.727-5.103 27.05 0 40.909 33.281 74.19 74.245 74.19 20.143-.148 37.337-7.965 49.746-22.629 3.863-4.604 5.703-10.437 5.179-16.424-.523-5.986-3.348-11.411-7.951-15.274-4.604-3.864-10.438-5.7-16.424-5.18-5.988.523-11.413 3.349-15.275 7.954-1.992 2.739-8.249 6.513-15.329 6.553-16.096 0-29.191-13.094-29.191-29.19s13.095-29.19 29.19-29.19c5.853 0 11.491 1.719 16.306 4.972 4.979 3.364 10.972 4.585 16.871 3.446 5.9-1.142 11.004-4.514 14.368-9.493 3.364-4.98 4.588-10.973 3.446-16.872-1.143-5.9-4.514-11.003-9.493-14.367-12.281-8.299-26.631-12.686-41.498-12.686-16.8 0-32.656 5.498-45.854 15.9-3.253 2.564-3.812 7.28-1.248 10.533 2.564 3.254 7.281 3.812 10.533 1.248 10.525-8.297 23.171-12.682 36.568-12.682 11.862 0 23.308 3.497 33.1 10.114 1.66 1.121 2.784 2.822 3.165 4.788.381 1.967-.027 3.965-1.149 5.625-1.121 1.659-2.821 2.783-4.788 3.164-1.968.38-3.965-.028-5.625-1.149-7.304-4.934-15.846-7.542-24.702-7.542-24.367.001-44.19 19.825-44.19 44.191 0 24.348 19.794 44.159 44.135 44.19 10.502.17 21.037-4.557 26.937-11.983 1.283-1.493 3.065-2.409 5.03-2.58 1.998-.176 3.94.438 5.476 1.727 1.534 1.288 2.476 3.096 2.65 5.092.174 1.995-.438 3.939-1.707 5.45-9.477 11.199-22.75 17.181-38.33 17.295-32.638-.001-59.191-26.553-59.191-59.191 0-7.439 1.368-14.696 4.066-21.567 1.514-3.856-.384-8.209-4.24-9.723z" fill="#ffffff" data-original="#000000" style="--darkreader-inline-fill: #181a1b;" data-darkreader-inline-fill=""/><path d="m222.04 297.19c12.406 0 22.5-10.094 22.5-22.5v-80.88h6.161c12.406 0 22.5-10.094 22.5-22.5s-10.094-22.5-22.5-22.5h-57.093c-12.406 0-22.5 10.094-22.5 22.5s10.094 22.5 22.5 22.5h5.932v80.881c0 12.406 10.094 22.499 22.5 22.499zm-28.432-118.38c-4.136 0-7.5-3.364-7.5-7.5s3.364-7.5 7.5-7.5h57.093c4.136 0 7.5 3.364 7.5 7.5s-3.364 7.5-7.5 7.5h-13.661c-4.143 0-7.5 3.357-7.5 7.5v88.381c0 4.136-3.364 7.5-7.5 7.5s-7.5-3.364-7.5-7.5v-88.381c0-4.143-3.357-7.5-7.5-7.5z" fill="#ffffff" data-original="#000000" style="--darkreader-inline-fill: #181a1b;" data-darkreader-inline-fill=""/><path d="m321.693 217.584c3.32-.015 8.724-.037 12.364-.039 11.323 0 20.889-8.869 20.889-19.368 0-10.498-9.565-19.367-20.889-19.367h-12.427c-1.992 0-3.903.793-5.311 2.204-1.407 1.41-2.194 3.323-2.189 5.315.029 9.358.011 13.371.063 23.792.022 4.129 3.375 7.463 7.5 7.463zm12.365-23.774c3.316 0 5.889 2.348 5.889 4.367 0 2.021-2.572 4.368-5.889 4.368-1.333 0-3.019.004-4.895.01-.008-2.14-.005-3.22-.015-8.745z" fill="#ffffff" data-original="#000000" style="--darkreader-inline-fill: #e8e6e3;" data-darkreader-inline-fill=""/><path d="m384.946 198.177c0-27.221-22.828-49.367-50.889-49.367-.064 0-27.158 0-27.505 0-12.406 0-22.5 10.094-22.5 22.5v51.694c0 4.143 3.357 7.5 7.5 7.5s7.5-3.357 7.5-7.5v-51.694c0-4.11 3.323-7.459 7.425-7.5h27.58c19.789 0 35.889 15.417 35.889 34.367 0 14.101-9.256 26.992-23.032 32.077-2.319.856-4.067 2.801-4.674 5.197-.605 2.396.008 4.938 1.642 6.794l24.194 27.49c1.323 1.504 1.982 3.434 1.854 5.433-.127 1.999-1.025 3.829-2.53 5.153-1.369 1.205-3.127 1.869-4.948 1.869-2.158 0-4.212-.928-5.636-2.545l-29.634-33.67c-2.062-2.343-5.356-3.165-8.278-2.062-2.919 1.102-4.852 3.896-4.852 7.017v23.76c0 4.136-3.364 7.5-7.5 7.5s-7.5-3.364-7.5-7.5v-16.687c0-4.143-3.357-7.5-7.5-7.5s-7.5 3.357-7.5 7.5v16.687c0 12.406 10.094 22.5 22.5 22.5s22.5-10.094 22.5-22.5v-3.887l16.504 18.752c4.27 4.852 10.428 7.635 16.896 7.635 5.473 0 10.75-1.993 14.859-5.61 4.512-3.97 7.207-9.46 7.589-15.458.383-5.998-1.594-11.785-5.564-16.297l-17.747-20.164c14.289-8.983 23.357-24.613 23.357-41.484z" fill="#ffffff" data-original="#000000" style="--darkreader-inline-fill: #181a1b;" data-darkreader-inline-fill=""/><path d="m464.5 33h-110.833c-4.143 0-7.5 3.357-7.5 7.5s3.357 7.5 7.5 7.5h110.833c17.921 0 32.5 14.579 32.5 32.5v285c0 17.921-14.579 32.5-32.5 32.5h-417c-17.921 0-32.5-14.579-32.5-32.5v-285c0-17.921 14.579-32.5 32.5-32.5h271.167c4.143 0 7.5-3.357 7.5-7.5s-3.357-7.5-7.5-7.5h-271.167c-26.191 0-47.5 21.309-47.5 47.5v351c0 26.191 21.309 47.5 47.5 47.5h127.5c4.143 0 7.5-3.357 7.5-7.5s-3.357-7.5-7.5-7.5h-127.5c-17.921 0-32.5-14.579-32.5-32.5v-31.406c8.504 7.993 19.936 12.906 32.5 12.906h417c12.564 0 23.996-4.913 32.5-12.906v31.406c0 17.921-14.579 32.5-32.5 32.5h-254.5c-4.143 0-7.5 3.357-7.5 7.5s3.357 7.5 7.5 7.5h254.5c26.191 0 47.5-21.309 47.5-47.5v-351c0-26.191-21.309-47.5-47.5-47.5z" fill="#ffffff" data-original="#000000" style="--darkreader-inline-fill: #181a1b;" data-darkreader-inline-fill=""/></g></g></svg>
