<?xml version="1.0"?>
<svg xmlns="http://www.w3.org/2000/svg" xmlns:xlink="http://www.w3.org/1999/xlink" xmlns:svgjs="http://svgjs.com/svgjs" version="1.1" width="512" height="512" x="0" y="0" viewBox="0 0 512 512" style="enable-background:new 0 0 512 512" xml:space="preserve"><g><g><path d="m464.5 33h-196c-4.142 0-7.5 3.358-7.5 7.5s3.358 7.5 7.5 7.5h196c17.92 0 32.5 14.58 32.5 32.5v285c0 17.92-14.58 32.5-32.5 32.5h-96.379c-4.142 0-7.5 3.358-7.5 7.5s3.358 7.5 7.5 7.5h96.379c12.564 0 23.996-4.912 32.5-12.906v31.406c0 17.92-14.58 32.5-32.5 32.5h-417c-17.92 0-32.5-14.58-32.5-32.5v-31.406c8.504 7.994 19.936 12.906 32.5 12.906h285.446c4.142 0 7.5-3.358 7.5-7.5s-3.358-7.5-7.5-7.5h-285.446c-17.92 0-32.5-14.58-32.5-32.5v-285c0-17.92 14.58-32.5 32.5-32.5h186c4.142 0 7.5-3.358 7.5-7.5s-3.358-7.5-7.5-7.5h-186c-26.191 0-47.5 21.309-47.5 47.5v351c0 26.191 21.309 47.5 47.5 47.5h417c26.191 0 47.5-21.309 47.5-47.5v-351c0-26.191-21.309-47.5-47.5-47.5z" fill="#ffffff" data-original="#000000"/><path d="m435.18 132.316c0-9.649-7.851-17.5-17.5-17.5h-48c-9.649 0-17.5 7.851-17.5 17.5v69.752h-155.284v-25.068c0-8.071-4.548-15.196-11.869-18.595-7.32-3.396-15.699-2.272-21.864 2.938l-79.075 66.829c-4.619 3.904-7.268 9.61-7.268 15.657s2.649 11.754 7.268 15.657l26.981 22.803c1.409 1.19 3.127 1.772 4.837 1.772 2.131 0 4.249-.904 5.732-2.659 2.673-3.164 2.276-7.896-.887-10.569l-26.981-22.803c-1.697-1.434-1.95-3.247-1.95-4.201 0-.953.253-2.767 1.95-4.201l79.075-66.829c2.42-2.045 4.909-1.231 5.866-.788.958.444 3.185 1.82 3.185 4.989v32.569c0 4.142 3.358 7.5 7.5 7.5h170.284c4.142 0 7.5-3.358 7.5-7.5v-77.252c0-1.378 1.122-2.5 2.5-2.5h48c1.378 0 2.5 1.122 2.5 2.5v48.348c0 4.142 3.358 7.5 7.5 7.5s7.5-3.358 7.5-7.5z" fill="#ffffff" data-original="#000000"/><path d="m427.68 208.338c-4.142 0-7.5 3.358-7.5 7.5v32.251c0 12.407-10.093 22.5-22.5 22.5h-208.284c-4.142 0-7.5 3.358-7.5 7.5v32.569c0 3.168-2.227 4.544-3.185 4.989-.957.444-3.445 1.258-5.866-.789l-25.268-21.354c-3.166-2.674-7.897-2.276-10.569.887-2.674 3.164-2.277 7.896.887 10.569l25.268 21.354c3.806 3.216 8.454 4.876 13.177 4.876 2.928 0 5.885-.638 8.687-1.938 7.321-3.398 11.869-10.523 11.869-18.595v-25.067h200.784c20.678 0 37.5-16.822 37.5-37.5v-32.251c0-4.143-3.358-7.501-7.5-7.501z" fill="#ffffff" data-original="#000000"/></g></g></svg>
