<?xml version="1.0"?>
<svg xmlns="http://www.w3.org/2000/svg" xmlns:xlink="http://www.w3.org/1999/xlink" xmlns:svgjs="http://svgjs.com/svgjs" version="1.1" width="512" height="512" x="0" y="0" viewBox="0 0 512 512" style="enable-background:new 0 0 512 512" xml:space="preserve" class=""><g><g><g><path d="m7.32 353.75v81.767c0 22.758 12.344 39.643 35.102 39.643l26.539 1.564h401.832c22.758 0 41.207-18.449 41.207-41.207v-8.839l-10.817-30.823 1.03-42.105z" fill="#bfbdbe" data-original="#7a6d79" class=""/><path d="m502.213 353.752 9.787 13.774v59.153c-11.682 8.169-25.899 12.96-41.207 12.96h-429.586c-.034 0-.069 0-.103 0-5.527-.008-9.461 5.442-7.486 10.604 5.924 15.485 20.922 26.482 38.495 26.482h-30.906c-22.758 0-41.207-18.449-41.207-41.208v-81.765z" fill="#dadada" data-original="#685e68" class=""/><path d="m470.793 408.733h-401.407l-27.248-1.054c-22.758 0-39.922-19.942-39.922-42.701l2.155-285.003c0-22.758 19.999-43.665 42.757-43.665l21.974-1.035h401.69c22.758 0 41.207 18.449 41.207 41.207v291.043c.001 22.759-18.448 41.208-41.206 41.208z" fill="#fafafa" data-original="#918291" class=""/><path d="m72.113 408.733h-30.906c-22.756 0-41.207-18.451-41.207-41.207v-291.043c0-22.757 18.451-41.207 41.207-41.207h30.905c-22.757 0-41.207 18.45-41.207 41.207v291.043c0 22.756 18.451 41.207 41.208 41.207z" fill="#bfbdbe" data-original="#7a6d79" class=""/></g><path d="m366.93 132.408-3.309 75.335c0 .801-.679 1.337-1.935 1.479-.281.144-.6.225-.937.225h-171.303c-1.138 0-2.06-.922-2.06-2.06v-31.491c0-11.398-13.331-17.586-22.037-10.229l-67.984 57.455-6.654 9.076c-6.33 5.35-6.33 15.107 0 20.457l72.42 63.301c8.705 7.357 22.037 1.169 22.037-10.229l2.218-6.519v-17.112c0-1.138.922-2.06 2.06-2.06h212.51c17.069 0 30.905-13.837 30.905-30.905v-119.268c0-5.69-4.612-10.302-10.302-10.302h-28.845l-16.483 2.545c-5.689 0-10.301 4.613-10.301 10.302z" fill="#3b3b3b" data-original="#f5f8f9" class=""/><g fill="#e2e8ed"><path d="m187.385 299.208.005 14.381c0 11.394-13.341 17.585-22.046 10.23l-81.456-68.847c-6.336-5.347-6.336-15.113 0-20.459l13.477-11.391z" fill="#232323" data-original="#e2e8ed" class=""/><path d="m393.715 119.565v76.491c0 7.396-5.996 13.392-13.392 13.392h-19.573c1.133 0 2.06-.927 2.06-2.06v-77.521c0-5.697 4.615-10.302 10.302-10.302z" fill="#232323" data-original="#e2e8ed" class=""/></g></g></g></svg>
