<svg id="Capa_1" enable-background="new 0 0 512 512" height="512" viewBox="0 0 512 512" width="512" xmlns="http://www.w3.org/2000/svg"><g><path d="m143.469 189.039c12.407 0 22.5-10.094 22.5-22.5s-10.093-22.5-22.5-22.5h-47.594c-12.407 0-22.5 10.094-22.5 22.5v25.425c0 4.143 3.358 7.5 7.5 7.5s7.5-3.357 7.5-7.5v-25.425c0-4.136 3.364-7.5 7.5-7.5h47.594c4.136 0 7.5 3.364 7.5 7.5s-3.364 7.5-7.5 7.5h-32.594c-4.142 0-7.5 3.357-7.5 7.5v26.477c0 4.143 3.358 7.5 7.5 7.5h29.084c4.136 0 7.5 3.364 7.5 7.5s-3.364 7.5-7.5 7.5h-29.084c-4.142 0-7.5 3.357-7.5 7.5v26.477c0 4.143 3.358 7.5 7.5 7.5h32.594c4.136 0 7.5 3.364 7.5 7.5s-3.364 7.5-7.5 7.5h-47.594c-4.136 0-7.5-3.364-7.5-7.5v-52.528c0-4.143-3.358-7.5-7.5-7.5s-7.5 3.357-7.5 7.5v52.528c0 12.406 10.093 22.5 22.5 22.5h47.594c12.407 0 22.5-10.094 22.5-22.5s-10.093-22.5-22.5-22.5h-25.094v-11.477h21.584c12.407 0 22.5-10.094 22.5-22.5s-10.093-22.5-22.5-22.5h-21.584v-11.477z"/><path d="m380.217 188.52c6.917 0 13.58 2.032 19.271 5.878 4.979 3.364 10.97 4.587 16.874 3.446 5.9-1.143 11.002-4.515 14.367-9.495 6.944-10.28 4.231-24.295-6.049-31.24-13.16-8.89-28.535-13.589-44.463-13.589-43.834 0-79.496 35.662-79.496 79.496 0 24.898 11.943 48.703 31.948 63.676 3.316 2.48 8.016 1.805 10.499-1.511 2.481-3.316 1.806-8.017-1.511-10.499-16.483-12.336-25.937-31.168-25.937-51.666 0-35.563 28.933-64.496 64.496-64.496 12.924 0 25.396 3.811 36.065 11.019 3.428 2.315 4.332 6.987 2.017 10.414-1.121 1.66-2.822 2.784-4.789 3.165-1.97.379-3.966-.029-5.624-1.148-8.18-5.527-17.747-8.449-27.669-8.449-27.292 0-49.496 22.204-49.496 49.496s22.204 49.496 49.496 49.496c11.921-.258 22.181-3.988 30.159-13.407 2.656-3.168 7.397-3.585 10.565-.932 3.17 2.657 3.587 7.397.932 10.566-9.176 11.287-25.146 19.027-41.656 18.772-3.561 0-7.131-.293-10.612-.872-4.087-.68-7.948 2.083-8.628 6.169s2.082 7.948 6.169 8.628c4.291.714 8.689 1.075 13.071 1.075 20.822-.022 39.809-8.31 53.151-24.137 7.969-9.507 6.718-23.727-2.791-31.698-9.511-7.968-23.729-6.714-31.696 2.791-3.642 4.616-10.682 8.107-18.664 8.044-19.021 0-34.496-15.475-34.496-34.496s15.475-34.496 34.497-34.496z"/><path d="m236.061 257.512c-9.04 0-17.657-3.554-23.053-9.508-4.036-4.452-9.564-7.067-15.567-7.362-6.008-.294-11.761 1.766-16.213 5.801-4.454 4.035-7.069 9.563-7.364 15.567-.295 6.002 1.765 11.761 5.801 16.214 13.989 15.436 34.544 24.288 56.396 24.288 28.026 0 51.615-18.189 56.09-43.251 3.425-19.182-4.866-44.086-38.406-56.456-11.876-4.381-23.141-9.14-28.402-11.411.316-.666 1.266-1.469 3.165-2.04 11.588-3.487 23.284 5.368 23.811 5.774 9.545 7.822 23.693 6.467 31.578-3.041 3.837-4.626 5.643-10.469 5.084-16.453-.558-5.984-3.413-11.393-8.039-15.229-3.064-2.541-30.933-24.524-65.413-14.139-18.845 5.677-32.196 20.658-34.844 39.1-2.527 17.607 5.303 34.891 19.95 44.03 3.281 2.047 21.155 9.489 37.539 15.629 6.082 2.242 9.486 5.268 9.678 6.327-.394 2.21-4.673 6.16-11.791 6.16zm7.339-26.548c-18.841-7.061-33-13.25-34.825-14.294-9.458-5.902-14.699-17.627-13.042-29.174 1.809-12.599 11.128-22.894 24.323-26.867 26.989-8.136 49.08 9.306 51.511 11.322 1.542 1.278 2.493 3.081 2.68 5.076.186 1.994-.416 3.941-1.695 5.483-1.874 2.251-6.555 3.88-10.633.927-.759-.55-18.135-14.286-37.536-8.447-11.349 3.418-13.433 12.068-13.801 14.638-.748 5.207 1.062 10.373 5.089 13.511 4.344 3.385 18.095 8.005 33.084 13.738 31.276 11.536 29.974 33.34 28.831 39.747-3.196 17.897-20.576 30.888-41.325 30.888-17.626 0-34.13-7.057-45.281-19.36-1.345-1.484-2.032-3.404-1.934-5.405s.97-3.844 2.455-5.189c1.391-1.261 3.163-1.942 5.027-1.942 1.584.044 3.239.467 5.566 2.463 8.191 9.038 20.963 14.435 34.167 14.435 13.254 0 24.671-7.963 26.557-18.523 1.672-9.367-5.526-17.979-19.218-23.027z"/><path d="m464.5 33h-62.5c-4.143 0-7.5 3.357-7.5 7.5s3.357 7.5 7.5 7.5h62.5c17.921 0 32.5 14.579 32.5 32.5v285c0 17.921-14.579 32.5-32.5 32.5h-240.327c-4.142 0-7.5 3.357-7.5 7.5s3.358 7.5 7.5 7.5h240.327c12.564 0 23.996-4.913 32.5-12.906v31.406c0 17.921-14.579 32.5-32.5 32.5h-417c-17.92 0-32.5-14.579-32.5-32.5v-31.406c8.504 7.993 19.936 12.906 32.5 12.906h141.673c4.142 0 7.5-3.357 7.5-7.5s-3.358-7.5-7.5-7.5h-141.673c-17.92 0-32.5-14.579-32.5-32.5v-285c0-17.921 14.58-32.5 32.5-32.5h319.5c4.143 0 7.5-3.357 7.5-7.5s-3.357-7.5-7.5-7.5h-319.5c-26.191 0-47.5 21.309-47.5 47.5v351c0 26.191 21.309 47.5 47.5 47.5h417c26.191 0 47.5-21.309 47.5-47.5v-351c0-26.191-21.309-47.5-47.5-47.5z"/></g></svg>