<svg xmlns="http://www.w3.org/2000/svg" version="1.1" xmlns:xlink="http://www.w3.org/1999/xlink" xmlns:svgjs="http://svgjs.com/svgjs" width="512" height="512" x="0" y="0" viewBox="0 0 512 512" style="enable-background:new 0 0 512 512" xml:space="preserve" class=""><g><g><path d="m7.32 353.75v81.767c0 22.758 12.344 39.643 35.102 39.643l26.539 1.564h401.832c22.758 0 41.207-18.449 41.207-41.207v-8.839l-10.817-30.823 1.03-42.105z" fill="#bfbdbe" data-original="#7a6d79" class=""></path><path d="m502.213 353.752 9.787 13.774v59.153c-11.682 8.169-25.899 12.96-41.207 12.96h-429.586c-.034 0-.069 0-.103 0-5.527-.008-9.461 5.442-7.486 10.604 5.924 15.485 20.922 26.482 38.495 26.482h-30.906c-22.758 0-41.207-18.449-41.207-41.208v-81.765z" fill="#dadada" data-original="#685e68" class=""></path><path d="m470.793 408.733h-401.407l-27.248-1.054c-22.758 0-39.922-19.942-39.922-42.701l2.155-285.003c0-22.758 19.999-43.665 42.757-43.665l21.974-1.035h401.69c22.758 0 41.207 18.449 41.207 41.207v291.043c.001 22.759-18.448 41.208-41.206 41.208z" fill="#fafafa" data-original="#918291" class=""></path><path d="m72.113 408.733h-30.906c-22.756 0-41.207-18.451-41.207-41.207v-291.043c0-22.757 18.451-41.207 41.207-41.207h30.905c-22.757 0-41.207 18.45-41.207 41.207v291.043c0 22.756 18.451 41.207 41.208 41.207z" fill="#bfbdbe" data-original="#7a6d79" class=""></path><g fill="#f5f8f9"><path d="m272.965 166.561c-8.534 0-15.453 6.919-15.453 15.453v82.553c0 8.534 6.919 15.453 15.453 15.453s15.453-6.919 15.453-15.453v-82.553c0-8.535-6.918-15.453-15.453-15.453z" fill="#3b3b3b" data-original="#f5f8f9" class=""></path><path d="m218.744 166.578c-8.311.391-14.706 7.551-14.706 15.872v21.912c0 1.138-.922 2.06-2.06 2.06h-22.102c-1.138 0-2.06-.922-2.06-2.06v-21.912c0-8.321-6.394-15.48-14.706-15.872-8.874-.418-16.2 6.653-16.2 15.435v82.117c0 8.321 6.394 15.48 14.706 15.872 8.874.418 16.2-6.653 16.2-15.435v-25.179c0-1.138.922-2.06 2.06-2.06h22.102c1.138 0 2.06.922 2.06 2.06v24.743c0 8.321 6.394 15.48 14.706 15.872 8.874.418 16.2-6.653 16.2-15.435v-82.553c0-8.784-7.326-15.855-16.2-15.437z" fill="#3b3b3b" data-original="#f5f8f9" class=""></path><path d="m359.653 197.769c8.782 0 15.853-7.326 15.435-16.2-.391-8.311-7.551-14.706-15.872-14.706h-32.777c-8.534 0-15.453 6.918-15.453 15.453v81.511c0 8.321 6.394 15.48 14.706 15.872 8.874.418 16.2-6.653 16.2-15.435v-25.267c0-.569.461-1.03 1.03-1.03h13.656c8.321 0 15.48-6.394 15.872-14.706.418-8.874-6.653-16.2-15.435-16.2h-14.092c-.569 0-1.03-.461-1.03-1.03v-7.232c0-.569.461-1.03 1.03-1.03z" fill="#3b3b3b" data-original="#f5f8f9" class=""></path><path d="m96.597 209.443c-7.059-2.604-13.781-5.374-18.128-7.218-1.751-.743-1.861-3.181-.182-4.076l.081-.043c8.988-2.707 17.925 4.263 18.014 4.332 6.688 5.3 16.408 4.172 21.708-2.518 5.299-6.69 4.172-16.408-2.519-21.707-3.602-2.854-22.757-16.733-46.117-9.698-13.33 4.016-22.773 14.603-24.643 27.629-1.772 12.346 3.586 24.226 13.982 31.004.683.445 1.399.836 2.144 1.168.484.215 12.003 5.342 24.964 10.124 5.461 2.014 7.546 3.738 7.546 5.52 0 2.12-3.471 5.155-9.367 5.155-10.047 0-15.795-5.481-17.317-7.161-5.731-6.325-15.504-6.804-21.827-1.074-6.324 5.731-6.804 15.503-1.074 21.827 9.971 11.003 24.63 17.314 40.218 17.314 19.888 0 36.623-12.881 39.792-30.629 2.31-12.937-3.448-31.16-27.275-39.949z" fill="#3b3b3b" data-original="#f5f8f9" class=""></path><path d="m456.687 166.561h-45.154c-8.321 0-15.48 6.394-15.872 14.706-.418 8.874 6.653 16.2 15.435 16.2h5.19c1.138 0 2.06.922 2.06 2.06v64.604c0 8.321 6.394 15.48 14.706 15.872 8.874.418 16.2-6.653 16.2-15.435v-65.04c0-1.138.922-2.06 2.06-2.06h4.938c8.321 0 15.48-6.394 15.872-14.706.418-8.875-6.653-16.201-15.435-16.201z" fill="#3b3b3b" data-original="#f5f8f9" class=""></path></g></g></g></svg>